# xmcd
#
# Track frame offsets:
# 175
# 16217
# 35257
# 45722
# 61405
# 83520
# 110487
# 130082
# 132572
# 146660
# 155822
# 169087
#
# Disc length: 2437 seconds
#
#
# Revision: 0
# Processed by: cddbd v1.5.1PL0 Copyright (c) Steve Scherf et al.
# Submitted via: FreeRIP 2.51 
#
DISCID=a009830c
DTITLE=Blues Lee - Bubba
DYEAR=2000
DGENRE=Blues
TTITLE0=Adam
TTITLE1=Blue Angel
TTITLE2=Boogie Trap Cat
TTITLE3=Bye Bye Letter
TTITLE4=Jailbird
TTITLE5=The Cool Has Gone
TTITLE6=Train Kept On Rollin'
TTITLE7=Getting Ugly
TTITLE8=Fame's Got A Name
TTITLE9=Vinnie
TTITLE10=Talking About My Baby
TTITLE11=Hell
EXTD=
EXTT0=
EXTT1=
EXTT2=
EXTT3=
EXTT4=
EXTT5=
EXTT6=
EXTT7=
EXTT8=
EXTT9=
EXTT10=
EXTT11=
PLAYORDER=
